<svg 
 xmlns="http://www.w3.org/2000/svg"
 xmlns:xlink="http://www.w3.org/1999/xlink"
 width="14px" height="22px">
<path fill-rule="evenodd"  fill="rgb(247, 247, 253)"
 d="M7.000,7.000 C3.990,7.000 1.372,8.664 0.006,11.120 C0.005,11.080 -0.000,11.040 -0.000,11.000 C-0.000,7.134 3.134,4.000 7.000,4.000 C10.866,4.000 14.000,7.134 14.000,11.000 C14.000,11.040 13.995,11.080 13.994,11.120 C12.628,8.664 10.010,7.000 7.000,7.000 ZM7.000,3.000 C3.990,3.000 1.372,4.664 0.006,7.120 C0.005,7.080 -0.000,7.040 -0.000,7.000 C-0.000,3.134 3.134,-0.000 7.000,-0.000 C10.866,-0.000 14.000,3.134 14.000,7.000 C14.000,7.040 13.995,7.080 13.994,7.120 C12.628,4.664 10.010,3.000 7.000,3.000 ZM7.000,8.000 C10.866,8.000 14.000,11.134 14.000,15.000 C14.000,18.866 10.866,22.000 7.000,22.000 C3.134,22.000 -0.000,18.866 -0.000,15.000 C-0.000,11.134 3.134,8.000 7.000,8.000 ZM7.000,19.000 C9.209,19.000 11.000,17.209 11.000,15.000 C11.000,12.791 9.209,11.000 7.000,11.000 C4.791,11.000 3.000,12.791 3.000,15.000 C3.000,17.209 4.791,19.000 7.000,19.000 Z"/>
</svg>