<svg 
 xmlns="http://www.w3.org/2000/svg"
 xmlns:xlink="http://www.w3.org/1999/xlink"
 width="22px" height="20px">
<path fill-rule="evenodd"  fill="rgb(247, 247, 253)"
 d="M15.000,14.000 C11.134,14.000 8.000,10.866 8.000,7.000 C8.000,3.134 11.134,-0.000 15.000,-0.000 C18.866,-0.000 22.000,3.134 22.000,7.000 C22.000,10.866 18.866,14.000 15.000,14.000 ZM15.000,3.000 C12.791,3.000 11.000,4.791 11.000,7.000 C11.000,9.209 12.791,11.000 15.000,11.000 C17.209,11.000 19.000,9.209 19.000,7.000 C19.000,4.791 17.209,3.000 15.000,3.000 ZM7.000,7.000 C7.000,10.006 8.660,12.622 11.111,13.989 C11.073,13.989 11.038,14.000 11.000,14.000 C7.134,14.000 4.000,10.866 4.000,7.000 C4.000,3.134 7.134,-0.000 11.000,-0.000 C11.038,-0.000 11.073,0.011 11.111,0.011 C8.660,1.378 7.000,3.994 7.000,7.000 ZM3.000,7.000 C3.000,10.006 4.660,12.622 7.111,13.989 C7.073,13.989 7.038,14.000 7.000,14.000 C3.134,14.000 -0.000,10.866 -0.000,7.000 C-0.000,3.134 3.134,-0.000 7.000,-0.000 C7.038,-0.000 7.073,0.011 7.111,0.011 C4.660,1.378 3.000,3.994 3.000,7.000 ZM14.723,15.416 L15.277,14.584 L18.277,16.584 L18.000,17.000 L18.356,17.000 L18.373,16.990 L18.380,17.000 L19.000,17.000 L19.000,18.000 L18.801,18.000 L15.627,20.010 L15.004,19.123 L16.777,18.000 L4.000,18.000 L4.000,17.000 L17.099,17.000 L14.723,15.416 Z"/>
</svg>