<svg 
 xmlns="http://www.w3.org/2000/svg"
 xmlns:xlink="http://www.w3.org/1999/xlink"
 width="11px" height="11px">
<path fill-rule="evenodd"  fill="rgb(65, 65, 74)"
 d="M8.000,8.000 L8.000,11.000 L7.000,11.000 L7.000,8.000 L7.000,7.000 L8.000,7.000 L11.000,7.000 L11.000,8.000 L8.000,8.000 ZM7.000,4.000 L7.000,3.000 L7.000,-0.000 L8.000,-0.000 L8.000,3.000 L11.000,3.000 L11.000,4.000 L8.000,4.000 L7.000,4.000 ZM5.000,5.000 L6.000,5.000 L6.000,6.000 L5.000,6.000 L5.000,5.000 ZM3.000,8.000 L-0.000,8.000 L-0.000,7.000 L3.000,7.000 L4.000,7.000 L4.000,8.000 L4.000,11.000 L3.000,11.000 L3.000,8.000 ZM-0.000,4.000 L-0.000,3.000 L3.000,3.000 L3.000,-0.000 L4.000,-0.000 L4.000,3.000 L4.000,4.000 L3.000,4.000 L-0.000,4.000 Z"/>
</svg>