<svg 
 xmlns="http://www.w3.org/2000/svg"
 xmlns:xlink="http://www.w3.org/1999/xlink"
 width="11px" height="11px">
<path fill-rule="evenodd"  fill="rgb(65, 65, 74)"
 d="M10.000,11.000 L7.000,11.000 L7.000,10.000 L10.000,10.000 L10.000,7.000 L11.000,7.000 L11.000,10.000 L11.000,11.000 L10.000,11.000 ZM10.000,1.000 L7.000,1.000 L7.000,-0.000 L11.000,-0.000 L11.000,1.000 L11.000,4.000 L10.000,4.000 L10.000,1.000 ZM8.000,4.000 L8.000,5.000 L7.000,5.000 L7.000,4.000 L6.000,4.000 L6.000,3.000 L8.000,3.000 L8.000,4.000 ZM3.000,8.000 L3.000,6.000 L4.000,6.000 L4.000,7.000 L5.000,7.000 L5.000,8.000 L4.000,8.000 L3.000,8.000 ZM4.000,5.000 L3.000,5.000 L3.000,4.000 L3.000,3.000 L5.000,3.000 L5.000,4.000 L4.000,4.000 L4.000,5.000 ZM1.000,4.000 L-0.000,4.000 L-0.000,1.000 L-0.000,-0.000 L1.000,-0.000 L4.000,-0.000 L4.000,1.000 L1.000,1.000 L1.000,4.000 ZM1.000,10.000 L4.000,10.000 L4.000,11.000 L1.000,11.000 L-0.000,11.000 L-0.000,10.000 L-0.000,7.000 L1.000,7.000 L1.000,10.000 ZM7.000,6.000 L8.000,6.000 L8.000,7.000 L8.000,8.000 L7.000,8.000 L6.000,8.000 L6.000,7.000 L7.000,7.000 L7.000,6.000 Z"/>
</svg>