<?xml version="1.0" encoding="utf-8"?>
<!-- Generator: Adobe Illustrator 21.1.0, SVG Export Plug-In . SVG Version: 6.00 Build 0)  -->
<svg version="1.1" id="Слой_1" xmlns="http://www.w3.org/2000/svg" xmlns:xlink="http://www.w3.org/1999/xlink" x="0px" y="0px"
	 viewBox="0 0 21 21" style="enable-background:new 0 0 21 21;" xml:space="preserve">
<g id="sharps2">
	<rect x="10" y="4" width="2" height="3"/>
	<rect x="10" y="15" width="2" height="3"/>
	<rect x="4.5" y="9.5" transform="matrix(4.502005e-11 -1 1 4.502005e-11 -5.5 16.5)" width="2" height="3"/>
	<rect x="15.5" y="9.5" transform="matrix(4.365581e-11 -1 1 4.365581e-11 5.5 27.5)" width="2" height="3"/>
</g>
<g id="sharps1">
	<rect x="6" y="5.5" transform="matrix(0.7071 -0.7071 0.7071 0.7071 -2.8995 7)" width="2" height="3"/>
	<rect x="14" y="13.5" transform="matrix(0.7071 -0.7071 0.7071 0.7071 -6.2132 15)" width="2" height="3"/>
	<rect x="5.5" y="14" transform="matrix(0.7071 -0.7071 0.7071 0.7071 -8.5563 9.3431)" width="3" height="2"/>
	<rect x="13.5" y="6" transform="matrix(0.7071 -0.7071 0.7071 0.7071 -0.5563 12.6569)" width="3" height="2"/>
</g>
<g>
	<path d="M11,9c1.1,0,2,0.9,2,2s-0.9,2-2,2s-2-0.9-2-2S9.9,9,11,9 M11,6c-2.8,0-5,2.2-5,5s2.2,5,5,5s5-2.2,5-5S13.8,6,11,6L11,6z"/>
</g>
</svg>
